<?xml version="1.0" encoding="UTF-8"?>
<svg width="382px" height="256px" viewBox="0 0 382 256" version="1.1" xmlns="http://www.w3.org/2000/svg" xmlns:xlink="http://www.w3.org/1999/xlink">
    <!-- Generator: Sketch 62 (91390) - https://sketch.com -->
    <title>Logo</title>
    <desc>Created with Sketch.</desc>
    <defs>
        <rect id="path-1" x="3.02358611e-14" y="0" width="127.12766" height="254.255319"></rect>
        <polygon id="path-3" points="2.14411316e-12 -6.11066753e-13 127.12766 -6.11066753e-13 127.413718 195.362405 62.3584376 236.605407 127.12766 254.255319 60.785331 237.51364 28.6457399 254.255319 2.14411316e-12 254.255319"></polygon>
    </defs>
    <g id="Page-1" stroke="none" stroke-width="1" fill="none" fill-rule="evenodd">
        <g id="Desktop-HD" transform="translate(-526.000000, -49.000000)">
            <g id="Logo" transform="translate(528.000000, 0.000000)">
                <g id="Group-2" transform="translate(205.713724, 176.995827) rotate(-330.000000) translate(-205.713724, -176.995827) translate(74.713724, 48.995827)">
                    <circle id="Oval" fill="#F0F0F0" cx="130.787234" cy="128.12766" r="127.12766"></circle>
                    <g id="Group">
                        <g id="Oval" transform="translate(133.446809, 1.000000)">
                            <mask id="mask-2" fill="white">
                                <use xlink:href="#path-1"></use>
                            </mask>
                            <g id="Mask"></g>
                            <circle stroke="#979797" stroke-width="0.531914894" fill="#BD002C" mask="url(#mask-2)" cx="-2.65957447" cy="127.12766" r="126.861702"></circle>
                        </g>
                        <g id="Oval" transform="translate(64.127660, 127.755319) rotate(-180.000000) translate(-64.127660, -127.755319) translate(0.127660, 0.255319)">
                            <mask id="mask-4" fill="white">
                                <use xlink:href="#path-3"></use>
                            </mask>
                            <g id="Mask"></g>
                            <circle stroke="#979797" stroke-width="0.531914894" fill="#2363B8" mask="url(#mask-4)" cx="-2.65957447" cy="127.12766" r="126.861702"></circle>
                        </g>
                    </g>
                    <circle id="Oval" stroke-opacity="0.2" stroke="#000000" stroke-width="5.31914894" fill="#FFFFFF" cx="130.787234" cy="128.12766" r="47.8723404"></circle>
                    <circle id="Oval" stroke-opacity="0.2" stroke="#000000" stroke-width="5.31914894" fill="#FFFFFF" cx="130.787234" cy="128.12766" r="28.1914894"></circle>
                </g>
                <path d="M38.7975814,210.79114 C42.7003685,208.536735 45.6456394,206.54292 47.6333943,204.809695 C49.6211492,203.07647 51.3240733,200.743282 52.7421667,197.810131 C54.1602601,194.876981 55.1723183,191.107519 55.7783411,186.501745 C58.4448415,187.810755 60.8446919,189.156125 62.9778923,190.537857 L62.9778923,190.537857 L67.8139545,180.756649 C64.4929494,178.696171 60.7719692,176.817501 56.651014,175.120637 C56.8449413,170.151249 56.9419049,163.424396 56.9419049,154.940076 L56.9419049,154.940076 L45.5607962,154.940076 C45.5607962,159.933705 45.5123144,165.509115 45.4153507,171.666307 C42.3852366,170.987561 39.3308815,170.551225 36.2522856,170.357297 C37.0522357,164.32131 37.5249335,160.588209 37.670379,159.157995 L37.670379,159.157995 L37.670379,148.976812 L5.49056682,148.976812 L5.49056682,159.157995 L25.380236,159.157995 C25.1863087,161.557846 24.7863337,165.38791 24.1803108,170.648188 C16.5444232,171.545102 10.6053995,173.702543 6.36323969,177.120512 C2.1210799,180.538481 0,184.635195 0,189.410655 C0,194.33156 1.83624917,198.725226 5.50874751,202.591651 C9.18124584,206.458077 13.1991772,208.39129 17.5625416,208.39129 C19.7927056,208.39129 21.6653161,208.057977 23.1803732,207.391352 C24.6954302,206.724727 26.1741259,205.433898 27.6164603,203.518866 C29.0587946,201.603834 30.3496232,198.797949 31.4889461,195.101209 C32.6282691,191.40447 33.6948692,186.62295 34.6887467,180.756649 C37.9855109,180.950576 41.3913592,181.520238 44.9062916,182.465633 C44.5426779,186.441143 43.8760527,189.574281 42.9064162,191.865047 C41.9367797,194.155814 40.7974568,195.864798 39.4884475,196.992 C38.1794382,198.119203 36.0098764,199.531236 32.9797623,201.2281 L32.9797623,201.2281 L38.7975814,210.79114 Z M16.5807846,196.464848 C15.5384253,196.464848 14.4354638,195.689051 13.2718999,194.137633 C12.1083361,192.586215 11.5265542,191.010555 11.5265542,189.410655 C11.5265542,187.519864 12.4537691,185.871482 14.308199,184.465509 C16.1626288,183.059536 18.9563941,182.029297 22.6894947,181.374792 C20.9926308,191.459012 18.9563941,196.489002 16.5807846,196.464848 Z M85.9219166,209.954829 C90.1398354,199.773645 93.5638644,192.761961 96.1940035,188.919776 C98.8241426,185.077592 101.230053,183.156499 103.411735,183.156499 C104.357131,183.156499 105.13284,183.750402 105.738863,184.938206 C106.344886,186.126011 106.890306,188.331934 107.375125,191.555976 C108.32052,197.810131 109.944661,202.228038 112.247548,204.809695 C114.550435,207.391352 117.810838,208.682181 122.028757,208.682181 C126.343639,208.682181 129.931294,206.936835 132.791722,203.446144 C135.65215,199.955452 138.294409,193.592212 140.718501,184.356425 L140.718501,184.356425 L130.319149,181.520238 C127.579926,191.846867 124.925546,197.010181 122.356009,197.010181 C121.410613,197.010181 120.634904,196.392038 120.028881,195.155751 C119.422858,193.919465 118.901679,191.459012 118.465342,187.774393 C117.713874,181.811129 116.447286,177.61139 114.665579,175.175179 C112.883872,172.738967 110.332516,171.520861 107.011511,171.520861 C105.169202,171.545102 102.926917,172.29657 100.284658,173.775266 L100.284658,173.775266 L100.139212,173.62982 C103.629904,164.684924 106.938788,156.37029 110.065866,148.685921 L110.065866,148.685921 L99.0120096,145.48612 C93.0245041,160.515486 85.0856051,180.744528 75.1953125,206.173246 L75.1953125,206.173246 L85.9219166,209.954829 Z M158.244681,201.628075 C163.117104,189.313691 167.189578,176.926585 170.462101,164.466755 L170.462101,164.466755 L184.679397,164.466755 L184.679397,154.321933 L172.971036,154.321933 C173.867949,150.467628 174.510334,147.546598 174.898188,145.558843 L174.898188,145.558843 L164.098861,144.213472 C163.614043,146.492118 162.826213,149.861605 161.735372,154.321933 L161.735372,154.321933 L149.517952,154.321933 L149.517952,164.466755 L159.044631,164.466755 C156.062999,175.084275 152.293537,186.271457 147.736245,198.0283 L147.736245,198.0283 L158.244681,201.628075 Z M184.461228,209.882106 C193.842462,209.882106 199.551197,206.403535 201.587434,199.446393 C203.744875,201.288702 206.168966,203.421903 208.859707,205.845994 L208.859707,205.845994 L215.950175,198.101022 C211.223196,193.543731 206.726507,189.82275 202.460106,186.938082 L202.460106,186.938082 L202.460106,164.830369 C206.993157,164.975814 210.871703,165.351549 214.095745,165.957571 L214.095745,165.957571 L215.332031,155.812749 C208.302166,154.818872 200.193581,154.321933 191.006275,154.321933 L191.006275,154.321933 L191.006275,181.302069 C188.630665,180.599083 186.448983,180.24759 184.461228,180.24759 C178.546446,180.24759 173.989154,181.57478 170.789353,184.22916 C167.589553,186.88354 165.989653,190.465135 165.989653,194.973944 C165.989653,199.555477 167.613794,203.185554 170.862076,205.864175 C174.110358,208.542796 178.643409,209.882106 184.461228,209.882106 Z M184.461228,200.355427 C182.206823,200.355427 180.461478,199.870609 179.225191,198.900972 C177.988905,197.931336 177.370761,196.622327 177.370761,194.973944 C177.370761,193.398285 177.970724,192.149878 179.170649,191.228723 C180.370574,190.307569 182.134101,189.846991 184.461228,189.846991 C186.594429,189.846991 188.776111,190.465135 191.006275,191.701421 L191.006275,191.701421 L191.006275,192.392287 C191.006275,195.519365 190.533577,197.628324 189.588182,198.719166 C188.642786,199.810007 186.933802,200.355427 184.461228,200.355427 Z M264.710771,208.39129 C272.322418,207.736785 278.358405,204.785454 282.818733,199.537296 C287.279061,194.289139 289.509225,187.241093 289.509225,178.39316 C289.509225,169.90884 286.679099,162.921397 281.018846,157.43083 C275.358592,151.940263 268.189342,149.19498 259.511095,149.19498 C248.74813,149.19498 240.063823,152.261456 233.458174,158.394407 C226.852525,164.527358 223.549701,172.478377 223.549701,182.247465 C223.549701,189.107644 225.325348,194.919402 228.876641,199.682742 C232.427935,204.446081 236.312542,206.827751 240.53046,206.827751 C243.245443,206.827751 245.645293,206.185367 247.730012,204.900598 C249.81473,203.61583 251.863087,201.319003 253.875083,198.010119 C255.887079,194.701234 257.705147,189.931835 259.329289,183.70192 C260.95343,177.472005 262.407885,169.714913 263.692653,160.430643 C268.007535,161.279075 271.492167,163.333493 274.146547,166.593895 C276.800927,169.854298 278.128117,173.787386 278.128117,178.39316 C278.128117,189.713666 272.843598,196.113267 262.27456,197.591963 L262.27456,197.591963 L264.710771,208.39129 Z M240.53046,195.37392 C239.439619,195.37392 238.233634,194.016428 236.912504,191.301446 C235.591374,188.586464 234.93081,185.56847 234.93081,182.247465 C234.93081,176.841741 236.409505,172.248088 239.366897,168.466506 C242.324288,164.684924 246.433123,162.151748 251.693401,160.86698 C250.941933,165.933331 250.148043,170.490622 249.311731,174.538855 C248.47542,178.587087 247.669409,181.877791 246.8937,184.410967 C246.117991,186.944142 245.336221,189.053101 244.548392,190.737845 C243.760562,192.422588 243.033335,193.616453 242.36671,194.31944 C241.700084,195.022426 241.088001,195.37392 240.53046,195.37392 Z M316.343916,205.918717 C322.258699,205.918717 326.864473,204.227913 330.161237,200.846306 C333.458001,197.464698 335.106383,192.852865 335.106383,187.010805 C335.106383,181.58084 333.803434,177.34474 331.197536,174.302506 C328.591638,171.260271 324.925199,169.739154 320.198221,169.739154 C315.37428,169.739154 311.871468,171.799632 309.689786,175.920587 L309.689786,175.920587 L309.253449,175.920587 C309.471617,171.145127 310.756386,167.702917 313.107754,165.593958 C315.459123,163.484998 319.034658,162.430519 323.834358,162.430519 C326.670545,162.430519 329.300684,162.660807 331.724776,163.121385 L331.724776,163.121385 L331.724776,151.885721 C328.840107,151.473626 326.319052,151.267578 324.161611,151.267578 C318.101382,151.267578 313.00473,152.358419 308.871655,154.540101 C304.738579,156.721784 301.611501,160.109451 299.490421,164.703104 C297.369341,169.296757 296.308802,175.302443 296.308802,182.720163 C296.308802,190.040919 298.078388,195.737533 301.617562,199.810007 C305.156735,203.88248 310.06552,205.918717 316.343916,205.918717 Z M316.016664,194.537608 C314.392523,194.537608 313.083513,193.7922 312.089636,192.301384 C311.095759,190.810568 310.59882,188.901596 310.59882,186.574468 C310.59882,184.974568 311.113939,183.617077 312.144178,182.501995 C313.174417,181.386913 314.513727,180.829372 316.162109,180.829372 C319.507355,180.829372 321.179978,182.986813 321.179978,187.301695 C321.179978,189.82275 320.70122,191.659 319.743704,192.810443 C318.786188,193.961886 317.543841,194.537608 316.016664,194.537608 Z M355.796002,205.918717 C362.753144,205.918717 368.189169,204.500623 372.104077,201.664437 C376.018984,198.82825 377.976438,194.937583 377.976438,189.992437 C377.976438,182.720163 373.540351,178.526485 364.668177,177.411403 L364.668177,177.411403 L364.668177,177.193235 C368.474,176.126635 371.382909,174.41159 373.394905,172.048101 C375.406901,169.684612 376.412899,166.854485 376.412899,163.557721 C376.412899,159.727657 374.84936,156.721784 371.722282,154.540101 C368.595204,152.358419 364.280322,151.267578 358.777635,151.267578 C354.971811,151.267578 351.596264,151.679674 348.650993,152.503865 C345.705722,153.328056 342.827114,154.709788 340.015168,156.649061 L340.015168,156.649061 L345.978433,166.248462 C349.614569,163.969817 353.129502,162.830494 356.52323,162.830494 C358.341298,162.830494 359.789693,163.169866 360.868413,163.848612 C361.947134,164.527358 362.486494,165.569717 362.486494,166.97569 C362.486494,170.70879 358.838237,172.575341 351.541722,172.575341 L351.541722,172.575341 L348.196476,172.575341 L348.196476,183.374668 L351.468999,183.374668 C354.159741,183.374668 356.341423,183.574655 358.014046,183.97463 C359.686669,184.374605 360.898715,184.968508 361.650183,185.756337 C362.401651,186.544167 362.777385,187.665309 362.777385,189.119764 C362.777385,191.010555 362.056218,192.398347 360.613884,193.283141 C359.171549,194.167934 356.874723,194.610331 353.723404,194.610331 C351.687168,194.610331 349.463064,194.3255 347.051093,193.755839 C344.639122,193.186177 342.269573,192.307444 339.942445,191.119639 L339.942445,191.119639 L339.942445,203.046169 C342.778632,204.13701 345.414831,204.888478 347.851043,205.300573 C350.287255,205.712669 352.935575,205.918717 355.796002,205.918717 Z" id="みんなの63" stroke="#000000" stroke-width="3.19148936" fill="#FFFFFF" fill-rule="nonzero"></path>
                <path d="M103.201878,252.403092 C107.409408,251.952903 110.736041,251.007075 113.181776,249.565606 C115.627511,248.124138 117.430429,245.97925 118.590529,243.130942 C119.75063,240.282635 120.365311,236.482006 120.43457,231.729056 L120.43457,231.729056 L116.162109,231.495304 C116.127479,233.945368 115.950001,236.033982 115.629675,237.761147 C115.309349,239.488312 114.828859,240.990383 114.188206,242.26736 C113.547554,243.544337 112.677478,244.585397 111.57798,245.390542 C110.478481,246.195687 109.203669,246.838504 107.753543,247.318993 C106.303417,247.799483 104.522142,248.173918 102.40972,248.4423 L102.40972,248.4423 L103.201878,252.403092 Z M102.916182,242.715384 L107.032808,241.118081 C105.647613,237.984077 104.201816,234.837087 102.695416,231.677111 L102.695416,231.677111 L98.7086519,233.378304 C99.8600953,235.828367 101.262605,238.940728 102.916182,242.715384 L102.916182,242.715384 Z M147.406915,244.052963 L147.406915,239.741543 L125.226479,239.741543 L125.226479,244.052963 L147.406915,244.052963 Z M170.353536,236.702772 L173.41828,235.248317 C172.87286,234.148818 172.028757,232.551515 170.885971,230.456408 L170.885971,230.456408 L167.834213,232.001766 C168.76922,233.664 169.608994,235.231002 170.353536,236.702772 L170.353536,236.702772 Z M159.263319,253.247195 L159.263319,242.819274 C163.401589,243.875485 167.713008,245.208735 172.197577,246.819024 L172.197577,246.819024 L173.574115,242.741356 C168.838479,241.01852 164.068214,239.572723 159.263319,238.403964 L159.263319,238.403964 L159.263319,231.066759 L154.74412,231.066759 L154.74412,253.247195 L159.263319,253.247195 Z M165.704476,237.637778 L168.704289,236.19631 C167.855857,234.525418 167.033397,232.967074 166.23691,231.521277 L166.23691,231.521277 L163.237097,233.040662 C164.172104,234.737526 164.994563,236.269898 165.704476,237.637778 L165.704476,237.637778 Z M192.118413,244.494494 L192.118413,239.287026 L186.89796,239.287026 L186.89796,244.494494 L192.118413,244.494494 Z M215.779276,236.222282 L216.584421,232.430311 C213.398472,231.772343 210.385673,231.205279 207.546023,230.729118 L207.546023,230.729118 L206.740878,234.495117 C209.078395,234.884703 212.091194,235.460425 215.779276,236.222282 L215.779276,236.222282 Z M207.195396,252.662816 C213.57595,252.10008 218.326736,250.491955 221.447754,247.838441 C224.568771,245.184927 226.6444,240.931945 227.674638,235.079496 L227.674638,235.079496 L223.609957,234.391228 C222.735552,239.300012 221.062497,242.775986 218.590789,244.819149 C216.119082,246.862312 212.099852,248.121973 206.533099,248.598134 L206.533099,248.598134 L207.195396,252.662816 Z M214.298849,242.55955 L215.091007,238.858482 C212.320617,238.252459 209.36842,237.685395 206.234417,237.157289 L206.234417,237.157289 L205.468231,240.858357 C208.51566,241.369148 211.459199,241.936212 214.298849,242.55955 L214.298849,242.55955 Z M253.789894,244.052963 L253.789894,239.741543 L231.609458,239.741543 L231.609458,244.052963 L253.789894,244.052963 Z M259.399934,252.883581 C261.19203,252.009177 262.54043,251.022225 263.445136,249.922727 C264.349841,248.823228 265.005645,247.258391 265.412546,245.228214 C265.819447,243.198038 266.022897,240.356224 266.022897,236.702772 L266.022897,236.702772 L266.022897,231.196622 L261.659533,231.196622 L261.659302,237.022665 C261.657147,238.497321 261.639909,239.717447 261.607588,240.683043 C261.572958,241.717611 261.484219,242.67859 261.341371,243.56598 C261.198523,244.453371 261.03836,245.145968 260.860881,245.643773 C260.683403,246.141577 260.399871,246.624231 260.010285,247.091735 C259.620699,247.559238 259.209469,247.940167 258.776596,248.23452 C258.343722,248.528874 257.763672,248.870844 257.036444,249.260431 L257.036444,249.260431 L259.399934,252.883581 Z M269.5032,252.558926 C273.390403,252.558926 276.340436,251.582797 278.353297,249.630537 C280.366159,247.678278 281.558725,244.585397 281.930997,240.351895 L281.930997,240.351895 L277.853329,239.793488 C277.610919,242.295497 277.134759,244.180661 276.424846,245.44898 C275.714934,246.717299 274.650065,247.572224 273.23024,248.013755 L273.23024,248.013755 L273.23024,231.196622 L268.814931,231.196622 L268.814931,252.558926 L269.5032,252.558926 Z M303.33226,236.702772 L306.397004,235.248317 C305.851583,234.148818 305.00748,232.551515 303.864694,230.456408 L303.864694,230.456408 L300.812936,232.001766 C301.747943,233.664 302.587717,235.231002 303.33226,236.702772 L303.33226,236.702772 Z M292.242042,253.247195 L292.242042,242.819274 C296.380312,243.875485 300.691732,245.208735 305.176301,246.819024 L305.176301,246.819024 L306.552838,242.741356 C301.817203,241.01852 297.046937,239.572723 292.242042,238.403964 L292.242042,238.403964 L292.242042,231.066759 L287.722843,231.066759 L287.722843,253.247195 L292.242042,253.247195 Z M298.683199,237.637778 L301.683012,236.19631 C300.83458,234.525418 300.01212,232.967074 299.215633,231.521277 L299.215633,231.521277 L296.21582,233.040662 C297.150827,234.737526 297.973287,236.269898 298.683199,237.637778 L298.683199,237.637778 Z" id="ソード・シールド" stroke="#000000" stroke-width="1.06382979" fill="#FFFFFF" fill-rule="nonzero"></path>
            </g>
        </g>
    </g>
</svg>