<?xml version="1.0" encoding="UTF-8"?>
<svg width="741px" height="658px" viewBox="0 0 741 658" version="1.1" xmlns="http://www.w3.org/2000/svg" xmlns:xlink="http://www.w3.org/1999/xlink">
    <title>Group 3</title>
    <defs>
        <rect id="path-1" x="5.68434189e-14" y="0" width="239" height="478"></rect>
        <rect id="path-3" x="5.68434189e-13" y="-1.13686838e-12" width="239" height="478"></rect>
        <path d="M71.96,394.18 C89.6,384.52 101.22,372.34 108.22,355.68 C116.2,360.16 121.66,363.94 125.58,367.44 L133.7,341.26 C132.02,340.7 131.46,340.42 128.94,339.02 C124.04,336.36 124.04,336.36 114.38,331.46 C115.78,321.94 116.34,315.64 116.9,302.48 C117.04,297.02 117.18,295.62 117.88,292.26 L93.52,291.42 C93.94,294.36 94.08,296.18 94.08,299.4 C94.08,311.86 93.94,315.5 92.96,322.36 C85.12,319.14 79.38,317.6 69.02,315.5 C71.26,307.94 77,290.16 78.26,287.08 C79.8,283.16 80.22,282.32 81.62,280.36 L66.5,267.48 C64.68,268.46 63.56,268.88 60.76,269.16 C54.32,269.982128 41.9793391,270.536043 32.4006896,270.559242 L30.7853113,270.559218 C23.5031417,270.547325 20.1748936,270.39617 17.36,269.86 L18.34,292.4 C22.4,291.84 24.08,291.7 29.12,291.56 C38.5,291.14 46.2,290.72 52.36,290.16 C50.4,298.14 48.3,305.28 45.78,313.54 C33.32,314.24 25.48,316.34 18.06,321.1 C6.58,328.52 0,340.42 0,354.14 C0,363.38 2.94,371.36 8.54,377.1 C13.44,382.14 20.16,385.08 26.74,385.08 C35.28,385.08 42.7,380.46 48.16,371.64 C52.22,365.06 56.84,354.14 62.58,337.06 C72.52,339.16 78.26,340.98 87.22,345.04 C83.86,352.6 80.36,357.64 75.04,362.82 C69.58,368 64.82,371.08 54.46,375.98 C61.6,381.58 66.08,386.34 71.96,394.18 Z M26.46,360.86 C23.8,360.86 21.7,357.64 21.7,353.3 C21.7,349.38 22.96,345.74 25.62,342.66 C29.12,338.18 33.04,336.08 39.62,334.96 C33.32,353.58 29.68,360.86 26.46,360.86 Z M165.34,391.52 C167.3,382.28 172.06,368.14 176.26,359.32 C181.72,347.56 188.44,341.12 194.88,341.12 C199.22,341.12 200.76,343.36 200.76,350.22 L200.76,352.6 L200.76,352.6 C200.62,358.62 200.62,361.28 200.62,362.54 C200.62,372.48 202.58,378.5 207.34,383.4 C211.96,388.3 218.82,390.68 227.78,390.68 C240.66,390.68 251.72,385.36 259,375.7 C265.16,367.44 268.94,357.92 271.6,343.36 C261.52,338.88 257.46,336.36 249.34,329.36 C248.78,339.02 246.82,347.7 243.6,355.26 C240.24,362.96 236.18,366.6 230.58,366.6 C225.54,366.6 223.86,363.52 223.86,353.72 C223.58,336.36 223.58,335.24 222.18,330.2 C219.94,321.94 212.8,316.76 203.56,316.76 C197.4,316.76 191.8,318.86 186.2,322.92 C202.44,281.06 204.54,276.16 207.48,270.7 L180.18,264.96 C179.2,270.56 176.54,279.1 165.2,311.72 C156.66,336.36 151.76,350.36 150.64,353.86 C142.24,378.22 141.96,378.92 139.44,383.82 L165.34,391.52 Z M301.98,373.32 C302.82,371.36 302.82,371.36 304.64,367.86 C310.1,356.94 311.36,354.42 314.3,347.98 C320.88,333.56 324.52,323.9 329.56,307.38 C333.06,307.1 340.76,306.4 344.54,305.98 C351.54,305.14 351.54,305.14 354.9,304.86 L354.48,282.18 C350,283.58 343.98,284.56 335.02,285.54 C335.72,282.32 336,281.06 336.7,277.7 C338.38,269.02 338.52,269.02 339.36,266.5 L314.16,264.12 C314.02,269.16 313.18,276.02 312.06,280.78 C310.94,285.54 310.94,285.54 310.8,286.66 C308,286.8 307.3,286.8 305.76,286.8 C297.08,286.8 290.64,286.38 285.32,285.4 L285.32,307.8 L290.78,307.8 L290.78,307.8 C293.463333,307.916667 293.910556,307.936111 295.848519,307.939352 L305.06,307.94 L305.06,307.94 C298.76,327.68 289.1,347.56 279.16,360.86 L301.98,373.32 Z M400.96,318.86 L411.18,298.28 C398.16,290.72 386.68,285.68 369.04,279.38 L357.42,298.7 C374.08,304.3 387.8,310.6 400.96,318.86 Z M349.16,392.5 C360.36,392.5 370.16,389.28 375.62,383.82 C379.4,379.9 381.08,375.84 381.5,369.26 C389.06,374.02 394.38,378.5 399.56,384.52 L409.92,362.4 C405.72,359.04 403.48,357.22 403.06,356.94 C396.62,352.04 390.04,348.26 381.5,344.48 C380.66,337.48 380.38,333.28 380.38,328.24 C380.38,321.52 380.8,317.32 381.92,312.42 L358.82,311.44 C358.26,317.74 357.98,322.22 357.98,327.96 C357.98,331.18 358.12,333.84 358.54,339.16 C353.92,338.46 351.68,338.32 348.74,338.32 C329.28,338.32 315.7,349.66 315.7,365.9 C315.7,372.48 318.08,378.5 322.7,383.26 C328.44,389.14 337.96,392.5 349.16,392.5 Z M348.6,372.06 C342.58,372.06 338.66,369.4 338.66,365.34 C338.66,361 342.86,358.2 349.44,358.2 C352.8,358.2 355.18,358.62 358.96,360.02 C359.1,360.16 359.24,362.12 359.24,363.1 C359.24,368.98 355.6,372.06 348.6,372.06 Z M489.72,390.4 C509.32,387.32 520.38,382.84 529.9,374.3 C541.66,363.8 548.52,347.28 548.52,329.08 C548.52,313.26 543.76,299.68 534.8,290.16 C524.44,279.24 507.92,272.94 489.16,272.94 C468.58,272.94 450.8,280.08 438.48,293.52 C427.98,305 422.38,319.84 422.38,336.22 C422.38,361.84 435.54,379.76 454.3,379.76 C467.04,379.76 476.42,371.92 484.54,354 C492.1,337.48 496.86,319.42 499.94,295.34 C504.98,296.18 508.06,297.44 511.7,300.24 C519.82,306.4 524.02,315.92 524.02,327.82 C524.02,342.8 518,354.56 507.22,360.3 C499.66,364.22 490.98,366.46 477.82,367.44 C483.7,375.28 486.36,380.32 489.72,390.4 Z M453.88,353.86 C448.98,353.86 445.2,346.02 445.2,336.08 C445.2,323.62 451.22,310.6 460.46,302.76 C465.36,298.56 469.84,296.46 475.72,295.62 C474.18,309.48 470.12,325.72 465.22,338.32 C461.02,348.96 457.38,353.86 453.88,353.86 Z M601.58,383.4 C614.273333,383.4 624.213333,380.18 631.4,373.74 C638.586667,367.3 642.18,358.386667 642.18,347 C642.18,335.986667 639.193333,327.633333 633.22,321.94 C627.246667,316.246667 618.566667,313.4 607.18,313.4 C599.526667,313.4 593.04,315.033333 587.72,318.3 L587.72,318.3 L587.44,318.16 C589.12,304.72 596.4,298 609.28,298 C616.933333,298 624.213333,299.4 631.12,302.2 L631.12,302.2 L631.12,281.2 C623,279.333333 615.253333,278.4 607.88,278.4 C592.853333,278.4 581.28,283.323333 573.16,293.17 C565.04,303.016667 560.98,317.693333 560.98,337.2 C560.98,352.413333 564.55,363.916667 571.69,371.71 C578.83,379.503333 588.793333,383.4 601.58,383.4 Z M601.58,363.8 C597.38,363.8 593.996667,362.376667 591.43,359.53 C588.863333,356.683333 587.58,352.74 587.58,347.7 C587.58,342.566667 588.816667,338.6 591.29,335.8 C593.763333,333 597.193333,331.6 601.58,331.6 C610.913333,331.6 615.58,336.966667 615.58,347.7 C615.58,352.926667 614.343333,356.916667 611.87,359.67 C609.396667,362.423333 605.966667,363.8 601.58,363.8 Z M691.18,383.4 C703.966667,383.4 713.93,380.67 721.07,375.21 C728.21,369.75 731.78,362.213333 731.78,352.6 C731.78,345.786667 729.983333,340.35 726.39,336.29 C722.796667,332.23 717.593333,329.78 710.78,328.94 L710.78,328.94 L710.78,328.66 C717.966667,326.326667 723.03,323.27 725.97,319.49 C728.91,315.71 730.38,310.413333 730.38,303.6 C730.38,296.133333 727.043333,290.066667 720.37,285.4 C713.696667,280.733333 704.433333,278.4 692.58,278.4 C681.38,278.4 670.646667,280.033333 660.38,283.3 L660.38,283.3 L660.38,307.38 C670.646667,302.993333 679.98,300.8 688.38,300.8 C693.98,300.8 697.946667,301.43 700.28,302.69 C702.613333,303.95 703.78,305.886667 703.78,308.5 C703.78,312.326667 701.89,315.15 698.11,316.97 C694.33,318.79 687.773333,319.7 678.44,319.7 L678.44,319.7 L672.98,319.7 L672.98,341.4 L678.44,341.4 C688.706667,341.4 695.613333,342.146667 699.16,343.64 C702.706667,345.133333 704.48,347.653333 704.48,351.2 C704.48,354.186667 703.22,356.566667 700.7,358.34 C698.18,360.113333 694.54,361 689.78,361 C680.726667,361 670.693333,358.806667 659.68,354.42 L659.68,354.42 L659.68,378.5 C669.76,381.766667 680.26,383.4 691.18,383.4 Z" id="path-5"></path>
        <filter x="-0.7%" y="-4.1%" width="101.6%" height="111.7%" filterUnits="objectBoundingBox" id="filter-6">
            <feMorphology radius="3" operator="dilate" in="SourceAlpha" result="shadowSpreadOuter1"></feMorphology>
            <feOffset dx="2" dy="4" in="shadowSpreadOuter1" result="shadowOffsetOuter1"></feOffset>
            <feComposite in="shadowOffsetOuter1" in2="SourceAlpha" operator="out" result="shadowOffsetOuter1"></feComposite>
            <feColorMatrix values="0 0 0 0 0   0 0 0 0 0   0 0 0 0 0  0 0 0 0.5 0" type="matrix" in="shadowOffsetOuter1"></feColorMatrix>
        </filter>
        <path d="M221.572,470.45 C227.644,467.276 232.198,463.734 235.832,459.456 C240.34,454.166 243.928,446.438 245.722,438.02 C246.55,434.294 246.55,434.294 246.964,433.374 L238.132,431.35 C238.04,433.282 237.718,435.352 237.12,437.79 C234.866,446.806 231.232,452.878 224.976,457.846 C221.894,460.238 219.594,461.618 215.5,463.366 C218.26,465.712 219.732,467.414 221.572,470.45 Z M215.408,449.428 L224.01,446.576 C221.94,439.768 220.422,436.042 217.846,431.442 L209.75,433.926 C211.958,437.974 214.074,443.77 215.408,449.428 Z M294.804,453.89 L294.804,445.012 C291.722,445.334 289.974,445.426 285.374,445.426 L263.386,445.426 C258.602,445.426 256.118,445.334 253.956,445.012 L253.956,453.89 C256.762,453.66 258.28,453.614 263.432,453.614 L285.328,453.614 C290.572,453.614 292.596,453.66 294.804,453.89 Z M334.732,437.514 L338.964,435.444 C337.354,432.638 336.066,430.89 334.364,429.05 L330.224,430.936 C331.834,432.776 333.122,434.616 334.732,437.514 Z M316.332,469.714 C316.15536,468.56584 316.063507,466.273053 316.056442,463.079826 L316.056,450.716 C316.24,450.854 316.332,450.9 316.47,450.946 C316.608,451.038 316.746,451.084 318.126,451.636 C323.462,453.982 328.798,456.926 332.616,459.64 L336.986,451.82 C330.546,447.864 323.324,444.598 316.056,442.252 L316.056,435.95 C316.102,431.166 316.102,430.43 316.286,429.234 L307.408,429.234 C307.684,431.718 307.684,431.948 307.73,435.904 L307.73,462.676 C307.684,466.448 307.638,467.782 307.454,469.714 L316.332,469.714 Z M328.43,440.504 L332.8,438.388 C331.512,435.95 330.04,433.834 328.246,431.81 L323.876,433.788 C325.716,435.904 326.912,437.606 328.43,440.504 Z M366.426,456.512 C370.29,456.512 373.418,453.384 373.418,449.474 C373.418,445.61 370.29,442.482 366.426,442.482 C362.516,442.482 359.388,445.61 359.388,449.52 C359.388,453.384 362.516,456.512 366.426,456.512 Z M409.942,442.666 L414.036,435.628 C410.172,433.374 406.262,431.58 400.834,429.602 L396.74,436.088 C401.386,437.698 405.204,439.584 409.942,442.666 Z M396.786,469.668 C397.798,469.392 398.718,469.162 400.052,468.932 C403.732,468.242 405.71,467.782 408.424,466.908 C415.83,464.562 421.534,460.974 426.18,455.638 C429.124,452.326 431.01,449.152 433.356,443.632 C430.734,442.022 429.4,440.826 426.64,437.928 C425.122,442.298 423.788,444.966 421.58,448.048 C418.222,452.648 414.128,455.822 408.7,457.938 C404.238,459.686 398.534,460.882 394.486,460.974 L396.786,469.668 Z M406.308,454.58 L410.218,447.358 C406.078,444.644 402.674,442.942 397.384,440.872 L393.152,447.45 C398.304,449.428 402.352,451.636 406.308,454.58 Z M478.804,453.89 L478.804,445.012 C475.722,445.334 473.974,445.426 469.374,445.426 L447.386,445.426 C442.602,445.426 440.118,445.334 437.956,445.012 L437.956,453.89 C440.762,453.66 442.28,453.614 447.432,453.614 L469.328,453.614 C474.572,453.614 476.596,453.66 478.804,453.89 Z M506.91,470.45 C507.508,470.082 507.876,469.944 509.164,469.484 C513.81,467.782 516.064,466.586 518.824,464.24 C522.32,461.25 524.712,457.708 526.782,452.556 C524.16,450.532 522.964,449.336 520.664,446.484 C519.836,449.612 518.732,452.004 517.076,454.35 C515.512,456.512 514.04,457.846 511.556,459.41 L511.786,435.306 C511.832,432.592 511.878,431.856 512.154,429.97 L503.506,429.97 C503.644,431.074 503.69,432.086 503.69,433.558 L503.69,435.214 L503.46,462.446 C503.46,464.332 503.368,465.114 502.954,466.31 L506.91,470.45 Z M488.832,470.312 C491.96,467 493.708,464.516 495.226,461.112 C497.434,456.098 498.354,450.992 498.63,441.378 C498.952,432.27 498.952,432.27 499.136,430.706 L490.442,430.2 C490.58,431.396 490.626,432.408 490.626,434.432 C490.626,446.346 489.89,452.05 487.728,456.558 C486.302,459.594 484.876,461.526 482.254,463.872 C485.198,465.942 486.486,467.23 488.832,470.312 Z M564.732,437.514 L568.964,435.444 C567.354,432.638 566.066,430.89 564.364,429.05 L560.224,430.936 C561.834,432.776 563.122,434.616 564.732,437.514 Z M546.332,469.714 C546.15536,468.56584 546.063507,466.273053 546.056442,463.079826 L546.056,450.716 C546.24,450.854 546.332,450.9 546.47,450.946 C546.608,451.038 546.746,451.084 548.126,451.636 C553.462,453.982 558.798,456.926 562.616,459.64 L566.986,451.82 C560.546,447.864 553.324,444.598 546.056,442.252 L546.056,435.95 C546.102,431.166 546.102,430.43 546.286,429.234 L537.408,429.234 C537.684,431.718 537.684,431.948 537.73,435.904 L537.73,462.676 C537.684,466.448 537.638,467.782 537.454,469.714 L546.332,469.714 Z M558.43,440.504 L562.8,438.388 C561.512,435.95 560.04,433.834 558.246,431.81 L553.876,433.788 C555.716,435.904 556.912,437.606 558.43,440.504 Z" id="path-7"></path>
        <filter x="-1.0%" y="-7.8%" width="102.5%" height="125.6%" filterUnits="objectBoundingBox" id="filter-8">
            <feMorphology radius="1" operator="dilate" in="SourceAlpha" result="shadowSpreadOuter1"></feMorphology>
            <feOffset dx="2" dy="4" in="shadowSpreadOuter1" result="shadowOffsetOuter1"></feOffset>
            <feComposite in="shadowOffsetOuter1" in2="SourceAlpha" operator="out" result="shadowOffsetOuter1"></feComposite>
            <feColorMatrix values="0 0 0 0 0   0 0 0 0 0   0 0 0 0 0  0 0 0 0.5 0" type="matrix" in="shadowOffsetOuter1"></feColorMatrix>
        </filter>
    </defs>
    <g id="Page-1" stroke="none" stroke-width="1" fill="none" fill-rule="evenodd">
        <g id="Artboard" transform="translate(-207.000000, -21.000000)">
            <g id="Group-3" transform="translate(210.620000, 21.000000)">
                <g id="Group-2" transform="translate(389.380000, 329.000000) rotate(-330.000000) translate(-389.380000, -329.000000) translate(145.380000, 90.000000)">
                    <circle id="Oval" fill="#F0F0F0" cx="244" cy="239" r="239"></circle>
                    <g id="Group">
                        <g id="Oval" transform="translate(249.000000, 0.000000)">
                            <mask id="mask-2" fill="white">
                                <use xlink:href="#path-1"></use>
                            </mask>
                            <g id="Mask"></g>
                            <circle stroke="#979797" fill="#BD002C" mask="url(#mask-2)" cx="-5" cy="239" r="238.5"></circle>
                        </g>
                        <g id="Oval" transform="translate(119.500000, 239.000000) rotate(-180.000000) translate(-119.500000, -239.000000) translate(0.000000, -0.000000)">
                            <mask id="mask-4" fill="white">
                                <use xlink:href="#path-3"></use>
                            </mask>
                            <g id="Mask"></g>
                            <circle stroke="#979797" fill="#2363B8" mask="url(#mask-4)" cx="-5" cy="239" r="238.5"></circle>
                        </g>
                    </g>
                    <circle id="Oval" stroke-opacity="0.2" stroke="#000000" stroke-width="10" fill="#FFFFFF" cx="244" cy="239" r="90"></circle>
                    <circle id="Oval" stroke-opacity="0.2" stroke="#000000" stroke-width="10" fill="#FFFFFF" cx="244" cy="239" r="53"></circle>
                </g>
                <g id="みんなの63" fill-rule="nonzero">
                    <use fill="black" fill-opacity="1" filter="url(#filter-6)" xlink:href="#path-5"></use>
                    <use stroke="#000000" stroke-width="6" fill="#FFFFFF" xlink:href="#path-5"></use>
                </g>
                <g id="ソード・シールド" fill-rule="nonzero">
                    <use fill="black" fill-opacity="1" filter="url(#filter-8)" xlink:href="#path-7"></use>
                    <use stroke="#000000" stroke-width="2" fill="#FFFFFF" xlink:href="#path-7"></use>
                </g>
            </g>
        </g>
    </g>
</svg>